<?xml version="1.0" encoding="utf-8"?>

<!DOCTYPE svg PUBLIC "-//W3C//DTD SVG 1.1//EN" "http://www.w3.org/Graphics/SVG/1.1/DTD/svg11.dtd">
<!-- Uploaded to: SVG Repo, www.svgrepo.com, Generator: SVG Repo Mixer Tools -->
<svg height="800px" width="800px" version="1.1" id="_x32_" xmlns="http://www.w3.org/2000/svg" xmlns:xlink="http://www.w3.org/1999/xlink" 
	 viewBox="0 0 512 512"  xml:space="preserve">
<style type="text/css">
	.st0{fill:#000000;}
</style>
<g>
	<path class="st0" d="M119.729,129.325v-31.38c0-13.496,10.946-24.45,24.449-24.45h78.233c13.504,0,24.45,10.954,24.45,24.45v31.38
		c0,4.078-1.093,7.868-2.861,11.248h24c-1.768-3.38-2.861-7.17-2.861-11.248v-31.38c0-13.496,10.946-24.45,24.45-24.45h78.233
		c13.503,0,24.449,10.954,24.449,24.45v31.38c0,4.078-1.092,7.868-2.86,11.248h53.209V55.628c0-17.396-14.1-31.504-31.503-31.504
		H100.883c-17.402,0-31.504,14.108-31.504,31.504v84.946h53.209C120.822,137.194,119.729,133.403,119.729,129.325z"/>
	<polygon class="st0" points="442.62,155.132 69.38,155.132 3.736,324.434 508.264,324.434 	"/>
	<path class="st0" d="M0,336.62v54.209c0,18.643,15.108,33.752,33.752,33.752h444.496c18.643,0,33.752-15.108,33.752-33.752V336.62
		H0z"/>
	<polygon class="st0" points="70.054,487.876 130.589,487.876 136.093,440.457 64.55,440.457 	"/>
	<polygon class="st0" points="381.419,487.876 441.946,487.876 447.449,440.457 375.906,440.457 	"/>
</g>
</svg>