<?xml version="1.0" encoding="utf-8"?>

<!-- Uploaded to: SVG Repo, www.svgrepo.com, Generator: SVG Repo Mixer Tools -->
<svg version="1.1" id="Icons" xmlns="http://www.w3.org/2000/svg" xmlns:xlink="http://www.w3.org/1999/xlink" 
	 viewBox="0 0 32 32" xml:space="preserve">
<style type="text/css">
	.st0{fill:none;stroke:#000000;stroke-width:2;stroke-linecap:round;stroke-linejoin:round;stroke-miterlimit:10;}
</style>
<g>
	<path d="M21,26c0.6,0,1-0.4,1-1s-0.4-1-1-1h-4v-5.1c0.4-0.1,0.7-0.2,1-0.4v-5.6c0-0.5-0.1-0.9-0.2-1.4L16,3.5l-1.8,7.9
		c-0.1,0.5-0.2,1-0.2,1.4v5.6c0.3,0.2,0.6,0.3,1,0.4V24h-4c-0.6,0-1,0.4-1,1s0.4,1,1,1h4v5c0,0.6,0.4,1,1,1s1-0.4,1-1v-5H21z"/>
	<path d="M10,27H6c-0.1-0.9-0.3-1.8-0.7-2.7l-0.4-0.8c-0.2-0.5-0.8-0.7-1.3-0.4c-0.5,0.2-0.7,0.8-0.4,1.3l0.4,0.8
		c0.8,1.7,0.7,3.7-0.3,5.2c-0.3,0.5-0.2,1.1,0.3,1.4C3.6,31.9,3.8,32,4,32c0.3,0,0.6-0.2,0.8-0.4c0.5-0.8,0.9-1.7,1.1-2.6
		c0,0,0.1,0,0.1,0h3v2c0,0.6,0.4,1,1,1s1-0.4,1-1v-3C11,27.4,10.6,27,10,27z"/>
	<path d="M28.9,24.4c0.2-0.5,0-1.1-0.4-1.3c-0.5-0.2-1.1,0-1.3,0.4l-0.4,0.8c-0.4,0.8-0.7,1.8-0.7,2.7h-4c-0.6,0-1,0.4-1,1v3
		c0,0.6,0.4,1,1,1s1-0.4,1-1v-2h3c0,0,0.1,0,0.1,0c0.2,0.9,0.5,1.8,1.1,2.6c0.2,0.3,0.5,0.4,0.8,0.4c0.2,0,0.4-0.1,0.6-0.2
		c0.5-0.3,0.6-0.9,0.3-1.4c-1-1.6-1.2-3.6-0.3-5.2L28.9,24.4z"/>
	<path d="M8,13.3v5.1c0.6,0.3,1.3,0.6,2,0.6c0.7,0,1.4-0.2,2-0.6v-5.6c0-0.7,0.1-1.3,0.3-1.9l1.6-7l-5.2,7.6C8.2,12.1,8,12.7,8,13.3
		z"/>
	<path d="M6,18.5v-5.2c0-1.1,0.4-2.1,1-2.9l5.5-8.1L1.2,10.6C0.5,11.2,0,12.1,0,13v1.8c0,2.2,1.7,4.1,3.8,4.2
		C4.6,19,5.3,18.8,6,18.5z"/>
	<path d="M22,19c0.7,0,1.4-0.2,2-0.6v-5.1c0-0.6-0.2-1.2-0.6-1.7l-5.3-7.7l1.6,7c0.2,0.6,0.2,1.2,0.2,1.9v5.6
		C20.6,18.8,21.3,19,22,19z"/>
	<path d="M30.8,10.6L30.8,10.6L19.5,2.3l5.6,8.1c0.6,0.8,1,1.8,1,2.9v5.2c0.7,0.4,1.4,0.6,2.2,0.5c2.1-0.1,3.8-1.9,3.8-4.2V13
		C32,12.1,31.5,11.2,30.8,10.6z"/>
</g>
</svg>